<svg width="24" height="24" viewBox="0 0 24 24" fill="none" xmlns="http://www.w3.org/2000/svg">
<path d="M21.5971 3.89991C21.5971 2.86559 21.1862 1.87363 20.4549 1.14226C19.7235 0.410883 18.7315 0 17.6972 0H3.89991C2.86559 0 1.87363 0.410883 1.14226 1.14226C0.410883 1.87363 0 2.86559 0 3.89991V17.6984C0 18.7327 0.410883 19.7247 1.14226 20.4561C1.87363 21.1874 2.86559 21.5983 3.89991 21.5983H9.79658L10.2238 19.8896L10.2478 19.7984H3.89991C3.34297 19.7984 2.80884 19.5771 2.41502 19.1833C2.02121 18.7895 1.79996 18.2554 1.79996 17.6984V6.59865H19.7984V9.87818C20.372 9.65019 20.9899 9.56139 21.5983 9.61419L21.5971 3.89991ZM3.89991 1.79996H17.6984C18.8576 1.79996 19.7984 2.73954 19.7984 3.89991V4.79989H1.79876V3.89991C1.79876 2.73954 2.74074 1.79996 3.89991 1.79996ZM19.316 11.6025L12.2349 18.6836C11.8216 19.0966 11.5283 19.6143 11.3866 20.1812L10.8382 22.3771C10.5982 23.3335 11.4645 24.1987 12.4197 23.9599L14.6157 23.4103C15.1824 23.2689 15.7001 22.976 16.1132 22.5631L23.1955 15.4797C23.6966 14.9625 23.9743 14.269 23.9686 13.5489C23.9629 12.8288 23.6742 12.1399 23.1649 11.6307C22.6556 11.1216 21.9666 10.8332 21.2465 10.8277C20.5264 10.8222 19.833 11.1013 19.316 11.6025Z" fill="#BBBBBB"/>
</svg>
