<svg width="24" height="22" viewBox="0 0 24 22" fill="none" xmlns="http://www.w3.org/2000/svg">
<path d="M12 0C5.4 0 0 4.296 0 9.6C0.0301301 10.8752 0.341552 12.1281 0.912013 13.269C1.48247 14.4099 2.29789 15.4108 3.3 16.2C3.3 16.92 2.796 18.804 0 21.6C2.844 21.468 5.568 20.4 7.764 18.6C9.132 18.996 10.572 19.2 12 19.2C18.6 19.2 24 14.904 24 9.6C24 4.296 18.6 0 12 0ZM12 16.8C6.696 16.8 2.4 13.572 2.4 9.6C2.4 5.628 6.696 2.4 12 2.4C17.304 2.4 21.6 5.628 21.6 9.6C21.6 13.572 17.304 16.8 12 16.8Z" fill="#BBBBBB"/>
</svg>
