<svg width="20" height="20" viewBox="0 0 20 20" fill="none" xmlns="http://www.w3.org/2000/svg">
<path fill-rule="evenodd" clip-rule="evenodd" d="M15 6.96389C15.6461 7.15722 16.1111 7.22222 16.1111 7.22222V5.55556H17.2222C17.9589 5.55556 18.6655 5.2629 19.1864 4.74196C19.7073 4.22103 20 3.51449 20 2.77778C20 2.04107 19.7073 1.33453 19.1864 0.813592C18.6655 0.292658 17.9589 0 17.2222 0H14.02C13.2485 0 12.5086 0.306471 11.9631 0.851994C11.4176 1.39752 11.1111 2.1374 11.1111 2.90889C11.1111 5.41889 13.5267 6.52333 15 6.96389ZM18.8889 2.77778C18.8889 3.21981 18.7133 3.64373 18.4007 3.95629C18.0882 4.26885 17.6643 4.44444 17.2222 4.44444H15V5.79722C14.6952 5.69373 14.3977 5.56993 14.1094 5.42667C13.0078 4.87444 12.2222 4.08889 12.2222 2.90889C12.2222 2.43209 12.4116 1.97482 12.7488 1.63767C13.0859 1.30052 13.5432 1.11111 14.02 1.11111H17.2222C17.6643 1.11111 18.0882 1.28671 18.4007 1.59927C18.7133 1.91183 18.8889 2.33575 18.8889 2.77778ZM4.89833 6.66278C4.17029 6.63757 3.48131 6.32725 2.97995 5.79874C2.47859 5.27023 2.20502 4.56585 2.21821 3.83749C2.2314 3.10913 2.53031 2.41512 3.05048 1.90511C3.57064 1.3951 4.27041 1.10994 4.99889 1.11111H6.75944C7.47155 1.11111 8.15449 1.39399 8.65803 1.89753C9.16156 2.40106 9.44444 3.08401 9.44444 3.79611C9.44444 6.04167 7.42778 7.06833 6.11111 7.5C5.47333 7.70889 5 7.77778 5 7.77778V6.66667L4.89833 6.66278ZM6.11111 5.595L4.93889 5.55278C4.49838 5.5432 4.07961 5.35947 3.77428 5.04181C3.46894 4.72414 3.30192 4.29844 3.30979 3.85789C3.31765 3.41735 3.49976 2.99787 3.81623 2.69131C4.13271 2.38474 4.55776 2.21607 4.99833 2.22222H6.75889C6.96562 2.22215 7.17034 2.26281 7.36136 2.34187C7.55238 2.42093 7.72595 2.53685 7.87216 2.68301C8.01836 2.82916 8.13435 3.00269 8.21348 3.19368C8.29261 3.38467 8.33333 3.58938 8.33333 3.79611C8.33333 4.86 7.65722 5.55722 6.70889 6.05167C6.50889 6.15611 6.30611 6.245 6.11111 6.32056V5.595ZM12.2222 10C12.2222 11.2278 11.2278 12.2222 10 12.2222C8.77222 12.2222 7.77778 11.2278 7.77778 10C7.77778 8.77222 8.77222 7.77778 10 7.77778C11.2278 7.77778 12.2222 8.77222 12.2222 10ZM11.1111 10C11.1111 10.2947 10.994 10.5773 10.7857 10.7857C10.5773 10.994 10.2947 11.1111 10 11.1111C9.70532 11.1111 9.4227 10.994 9.21433 10.7857C9.00595 10.5773 8.88889 10.2947 8.88889 10C8.88889 9.70532 9.00595 9.4227 9.21433 9.21433C9.4227 9.00595 9.70532 8.88889 10 8.88889C10.2947 8.88889 10.5773 9.00595 10.7857 9.21433C10.994 9.4227 11.1111 9.70532 11.1111 10ZM7.22222 11.1111C7.22222 12.3389 6.22778 13.3333 5 13.3333C3.77222 13.3333 2.77778 12.3389 2.77778 11.1111C2.77778 9.88333 3.77222 8.88889 5 8.88889C6.22778 8.88889 7.22222 9.88333 7.22222 11.1111ZM6.11111 11.1111C6.11111 11.4058 5.99405 11.6884 5.78567 11.8968C5.5773 12.1052 5.29469 12.2222 5 12.2222C4.70532 12.2222 4.4227 12.1052 4.21433 11.8968C4.00595 11.6884 3.88889 11.4058 3.88889 11.1111C3.88889 10.8164 4.00595 10.5338 4.21433 10.3254C4.4227 10.1171 4.70532 10 5 10C5.29469 10 5.5773 10.1171 5.78567 10.3254C5.99405 10.5338 6.11111 10.8164 6.11111 11.1111ZM0 16.97C0 15.29 3.33111 14.4444 5 14.4444C5.325 14.4444 5.71333 14.4767 6.12778 14.5406C6.87278 13.9944 8.23722 13.3333 10 13.3333C11.7622 13.3333 13.1272 13.9944 13.8728 14.5406C14.2456 14.4804 14.6224 14.4483 15 14.4444C16.6689 14.4444 20 15.2906 20 16.9694V20H0V16.97ZM8.69556 16.6794C8.88889 16.8594 8.88889 16.9533 8.88889 16.9694V18.8889H1.11111V16.9694C1.11111 16.9528 1.11111 16.8594 1.30444 16.6794C1.50611 16.4911 1.83889 16.2906 2.29111 16.1072C3.19778 15.7406 4.30556 15.5556 5 15.5556C5.69444 15.5556 6.80222 15.7406 7.70889 16.1072C8.16111 16.2906 8.49389 16.4911 8.69556 16.6794ZM12.3011 14.92C11.5749 14.6051 10.7916 14.4432 10 14.4444C9.08 14.4444 8.29778 14.6589 7.69944 14.92C8.93 15.3333 10 16.0178 10 16.97C10 16.0178 11.07 15.3339 12.3011 14.92ZM18.8889 16.97C18.8889 16.9533 18.8889 16.8594 18.6956 16.6794C18.4939 16.4911 18.1611 16.2906 17.7089 16.1072C16.8022 15.7406 15.6944 15.5556 15 15.5556C14.3056 15.5556 13.1978 15.7406 12.2911 16.1072C11.8389 16.2906 11.5061 16.4911 11.3044 16.6794C11.1111 16.8594 11.1111 16.9533 11.1111 16.9694V18.8889H18.8889V16.97ZM15 13.3333C16.2278 13.3333 17.2222 12.3389 17.2222 11.1111C17.2222 9.88333 16.2278 8.88889 15 8.88889C13.7722 8.88889 12.7778 9.88333 12.7778 11.1111C12.7778 12.3389 13.7722 13.3333 15 13.3333ZM15 12.2222C15.2947 12.2222 15.5773 12.1052 15.7857 11.8968C15.994 11.6884 16.1111 11.4058 16.1111 11.1111C16.1111 10.8164 15.994 10.5338 15.7857 10.3254C15.5773 10.1171 15.2947 10 15 10C14.7053 10 14.4227 10.1171 14.2143 10.3254C14.006 10.5338 13.8889 10.8164 13.8889 11.1111C13.8889 11.4058 14.006 11.6884 14.2143 11.8968C14.4227 12.1052 14.7053 12.2222 15 12.2222Z" fill="#BBBBBB"/>
</svg>
