<svg width="26" height="25" viewBox="0 0 26 25" fill="none" xmlns="http://www.w3.org/2000/svg">
<path d="M8.67397 3.6922L7.95407 3.85833C8.01927 4.14206 8.02742 4.43592 7.97805 4.72283C7.92867 5.00974 7.82275 5.28397 7.66646 5.52958C7.51016 5.77519 7.3066 5.98729 7.0676 6.15353C6.82861 6.31977 6.55895 6.43685 6.27431 6.49796C5.69712 6.61937 5.09534 6.50949 4.5983 6.19194C4.10125 5.87439 3.74864 5.37451 3.61623 4.79974L2.17644 5.09508C1.97899 5.13816 1.79232 5.22082 1.62771 5.33807C1.46311 5.45533 1.32398 5.60473 1.21874 5.77726C1.1135 5.94979 1.04432 6.14186 1.01539 6.34188C0.986469 6.54189 0.998391 6.74569 1.05044 6.94097C1.05044 6.94097 1.71496 10.0236 2.49024 13.4939M22.5182 3.67374C22.4079 3.98456 22.2356 4.26974 22.0118 4.51202C21.7881 4.7543 21.5174 4.94862 21.2163 5.08323C20.9153 5.21783 20.59 5.28991 20.2602 5.2951C19.9304 5.30028 19.6031 5.23847 19.2979 5.1134C18.9927 4.98833 18.7161 4.80261 18.4848 4.56748C18.2536 4.33236 18.0724 4.05274 17.9524 3.74555C17.8324 3.43836 17.776 3.11 17.7866 2.78036C17.7972 2.45073 17.8746 2.12668 18.0142 1.82785L16.519 1.12641C16.1198 0.96003 15.671 0.957809 15.2701 1.12023C14.8693 1.28266 14.5486 1.59662 14.3778 1.99398L8.17558 16.595L7.36339 18.4409C7.19701 18.8401 7.19479 19.2889 7.35721 19.6898C7.51963 20.0906 7.83359 20.4113 8.23096 20.5821L15.7253 23.7755C16.1245 23.9419 16.5733 23.9441 16.9742 23.7817C17.375 23.6193 17.6957 23.3053 17.8665 22.9079L24.8809 6.40566C25.0356 6.02192 25.0397 5.59395 24.8926 5.20727C24.7454 4.82058 24.4578 4.50365 24.0872 4.3198L22.5182 3.67374Z" stroke="#BBBBBB" stroke-width="2" stroke-linecap="round" stroke-linejoin="round"/>
</svg>
