<svg width="50" height="51" viewBox="0 0 50 51" fill="none" xmlns="http://www.w3.org/2000/svg">
<path fill-rule="evenodd" clip-rule="evenodd" d="M0 25.5C0 11.6925 11.1925 0.5 25 0.5C38.8075 0.5 50 11.6925 50 25.5C50 39.3075 38.8075 50.5 25 50.5C11.1925 50.5 0 39.3075 0 25.5ZM25 5.5C19.6957 5.5 14.6086 7.60714 10.8579 11.3579C7.10714 15.1086 5 20.1957 5 25.5C5 30.8043 7.10714 35.8914 10.8579 39.6421C14.6086 43.3929 19.6957 45.5 25 45.5C30.3043 45.5 35.3914 43.3929 39.1421 39.6421C42.8929 35.8914 45 30.8043 45 25.5C45 20.1957 42.8929 15.1086 39.1421 11.3579C35.3914 7.60714 30.3043 5.5 25 5.5Z" fill="#BBBBBB"/>
<path fill-rule="evenodd" clip-rule="evenodd" d="M27.5001 13C27.5001 12.337 27.2367 11.7011 26.7679 11.2322C26.299 10.7634 25.6632 10.5 25.0001 10.5C24.3371 10.5 23.7012 10.7634 23.2324 11.2322C22.7635 11.7011 22.5001 12.337 22.5001 13V23H12.5001C11.8371 23 11.2012 23.2634 10.7324 23.7322C10.2635 24.2011 10.0001 24.837 10.0001 25.5C10.0001 26.163 10.2635 26.7989 10.7324 27.2678C11.2012 27.7366 11.8371 28 12.5001 28H22.5001V38C22.5001 38.663 22.7635 39.2989 23.2324 39.7678C23.7012 40.2366 24.3371 40.5 25.0001 40.5C25.6632 40.5 26.299 40.2366 26.7679 39.7678C27.2367 39.2989 27.5001 38.663 27.5001 38V28H37.5001C38.1632 28 38.799 27.7366 39.2679 27.2678C39.7367 26.7989 40.0001 26.163 40.0001 25.5C40.0001 24.837 39.7367 24.2011 39.2679 23.7322C38.799 23.2634 38.1632 23 37.5001 23H27.5001V13Z" fill="#BBBBBB"/>
</svg>
