<svg width="50" height="51" viewBox="0 0 50 51" fill="none" xmlns="http://www.w3.org/2000/svg">
<path d="M25 0.5C18.3945 0.580149 12.0821 3.2398 7.41095 7.91095C2.7398 12.5821 0.0801487 18.8945 0 25.5C0.0801487 32.1055 2.7398 38.4179 7.41095 43.089C12.0821 47.7602 18.3945 50.4199 25 50.5C31.6055 50.4199 37.9179 47.7602 42.589 43.089C47.2602 38.4179 49.9199 32.1055 50 25.5C49.9199 18.8945 47.2602 12.5821 42.589 7.91095C37.9179 3.2398 31.6055 0.580149 25 0.5ZM39.2857 27.2857H26.7857V39.7857H23.2143V27.2857H10.7143V23.7143H23.2143V11.2143H26.7857V23.7143H39.2857V27.2857Z" fill="#BBBBBB"/>
</svg>
