<svg width="39" height="50" viewBox="0 0 39 50" fill="none" xmlns="http://www.w3.org/2000/svg">
<path d="M11.3353 0.0507514C13.9431 -0.308594 16.1358 1.28695 17.1734 3.36078L19.7255 8.46373C21.1414 11.2955 20.3278 14.6181 18.1818 16.7084C16.914 17.9421 15.6398 19.3516 14.9009 20.5954C14.8517 20.684 14.8364 20.7874 14.8579 20.8864C15.5411 24.5887 18.0502 28.2467 20.2885 30.8697C20.4014 30.9943 20.5483 31.0831 20.7111 31.1252C20.8739 31.1672 21.0455 31.1607 21.2046 31.1063L26.2342 29.5348C27.589 29.1113 29.0439 29.133 30.3855 29.5966C31.7271 30.0602 32.885 30.9413 33.6893 32.1109L37.3296 37.4062C38.3165 38.8423 38.8163 40.7909 38.0597 42.6648C37.384 44.3388 36.077 46.753 33.6995 48.3586C31.2321 50.0238 27.8525 50.6564 23.4303 49.1406C18.4893 47.4451 13.8216 43.1937 9.95105 37.7567C6.05772 32.2855 2.85271 25.4516 0.909213 18.3255C-0.928002 11.5979 0.1804 7.0681 2.78945 4.15159C5.30613 1.33756 8.91223 0.383525 11.3353 0.0507514ZM14.3429 4.77538C13.7647 3.62016 12.7334 3.04951 11.7655 3.18237C9.61321 3.47845 6.91812 4.27938 5.14797 6.25958C3.47018 8.13602 2.30864 11.441 3.95859 17.4929C5.81225 24.285 8.86415 30.776 12.5272 35.922C16.213 41.1009 20.4012 44.7576 24.4552 46.1482C28.0676 47.3869 30.3894 46.7745 31.928 45.7369C33.5552 44.6374 34.5561 42.89 35.1255 41.4805C35.3861 40.8352 35.2735 40.0001 34.7218 39.1979L31.0815 33.9038C30.6603 33.2912 30.0539 32.8295 29.3513 32.5866C28.6486 32.3436 27.8865 32.3321 27.1768 32.5538L22.1473 34.1253C20.6441 34.5947 18.9511 34.1759 17.8819 32.9232C15.5525 30.194 12.5841 26.0084 11.7452 21.4596C11.585 20.6071 11.7397 19.7254 12.1805 18.9784C13.1396 17.3664 14.658 15.7228 15.9726 14.4423C17.2569 13.1922 17.6213 11.3322 16.895 9.87834L14.3429 4.77538Z" fill="#BBBBBB"/>
</svg>
