<svg width="50" height="37" viewBox="0 0 50 37" fill="none" xmlns="http://www.w3.org/2000/svg">
<path d="M25 21.7391C28.0022 21.7391 30.7196 20.5217 32.687 18.5543C34.6522 16.5891 35.8696 13.8717 35.8696 10.8696C35.8696 7.86739 34.6522 5.15 32.687 3.18478C30.7196 1.21739 28.0022 0 25 0C21.9978 0 19.2804 1.21739 17.313 3.18478C15.3478 5.15 14.1304 7.86739 14.1304 10.8696C14.1304 13.8717 15.3478 16.5891 17.313 18.5543C18.3213 19.5655 19.5195 20.3673 20.8387 20.9139C22.1579 21.4604 23.5721 21.7409 25 21.7391ZM42.3913 23.913C43.1054 23.9145 43.8128 23.7749 44.4728 23.5023C45.1328 23.2296 45.7325 22.8294 46.2375 22.3244C46.7424 21.8195 47.1427 21.2198 47.4153 20.5598C47.6879 19.8997 47.8275 19.1924 47.8261 18.4783C47.8261 16.9783 47.2196 15.6196 46.2348 14.6348C45.7306 14.1294 45.1315 13.7286 44.4719 13.4555C43.8123 13.1824 43.1052 13.0424 42.3913 13.0435C41.6772 13.042 40.9698 13.1816 40.3098 13.4543C39.6498 13.7269 39.0501 14.1271 38.5451 14.6321C38.0402 15.137 37.6399 15.7367 37.3673 16.3968C37.0947 17.0568 36.9551 17.7642 36.9565 18.4783C36.9554 19.1923 37.0952 19.8995 37.3679 20.5594C37.6406 21.2193 38.0409 21.8189 38.5458 22.3238C39.0507 22.8287 39.6503 23.229 40.3101 23.5017C40.97 23.7744 41.6773 23.9142 42.3913 23.913ZM42.3913 25.1957C39.4978 25.1957 37.3217 26.0783 36.05 27.3C33.6261 25.3065 29.7935 23.913 25 23.913C20.0739 23.913 16.3152 25.3217 13.9304 27.313C12.6348 26.0848 10.4348 25.1957 7.6087 25.1957C2.85217 25.1957 0 27.5652 0 29.9391C0 31.1239 2.85217 32.313 7.6087 32.313C8.92174 32.313 10.1 32.2022 11.137 32.0239L11.05 32.6109C11.05 34.7848 16.2804 36.9587 25 36.9587C33.1783 36.9587 38.95 34.7848 38.95 32.6109L38.9065 32.0565C39.913 32.2152 41.0696 32.313 42.3913 32.313C46.85 32.313 50 31.1239 50 29.9391C50 27.5652 47.0152 25.1957 42.3913 25.1957ZM7.6087 23.913C9.1087 23.913 10.4674 23.3065 11.4522 22.3217C11.9576 21.8175 12.3583 21.2184 12.6314 20.5588C12.9045 19.8992 13.0446 19.1922 13.0435 18.4783C13.0449 17.7642 12.9053 17.0568 12.6327 16.3968C12.3601 15.7367 11.9598 15.137 11.4549 14.6321C10.9499 14.1271 10.3502 13.7269 9.69019 13.4543C9.03017 13.1816 8.3228 13.042 7.6087 13.0435C6.89467 13.0423 6.18744 13.1821 5.52754 13.4548C4.86765 13.7276 4.26806 14.1278 3.76317 14.6327C3.25828 15.1376 2.858 15.7372 2.58528 16.3971C2.31256 17.057 2.17277 17.7642 2.17391 18.4783C2.17248 19.1924 2.31208 19.8997 2.58469 20.5598C2.85731 21.2198 3.25758 21.8195 3.76253 22.3244C4.26748 22.8294 4.86718 23.2296 5.5272 23.5023C6.18723 23.7749 6.89459 23.9145 7.6087 23.913Z" fill="#BBBBBB"/>
</svg>
