<svg width="50" height="50" viewBox="0 0 50 50" fill="none" xmlns="http://www.w3.org/2000/svg">
<path fill-rule="evenodd" clip-rule="evenodd" d="M0 5C0 2.23858 2.23858 0 5 0H45C47.7614 0 50 2.23858 50 5V45C50 47.7614 47.7614 50 45 50H5C2.23858 50 0 47.7614 0 45V5ZM25 27.0833C30.7531 27.0833 35.4167 22.4198 35.4167 16.6667C35.4167 10.9135 30.7531 6.25 25 6.25C19.2469 6.25 14.5833 10.9135 14.5833 16.6667C14.5833 22.4198 19.2469 27.0833 25 27.0833ZM25 29.1667C18.7427 29.1667 6.25 32.3281 6.25 37.5V38.75C6.25 41.5114 8.48858 43.75 11.25 43.75H38.75C41.5114 43.75 43.75 41.5114 43.75 38.75V37.5C43.75 32.3281 31.2583 29.1667 25 29.1667Z" fill="#BBBBBB"/>
</svg>
