<svg width="24" height="24" viewBox="0 0 24 24" fill="none" xmlns="http://www.w3.org/2000/svg">
<path d="M6.34632 0.395412C7.29489 0.70038 8.1973 1.12195 9.0305 1.64937C10.2072 1.36394 11.4172 1.22055 12.6317 1.22259C13.886 1.22259 15.0961 1.37124 16.2304 1.64817C17.0633 1.12126 17.9653 0.7001 18.9133 0.395412C19.7937 0.111294 21.048 -0.349049 21.7933 0.433774C22.2985 0.966047 22.4249 1.85796 22.5145 2.53889C22.6156 3.29893 22.6396 4.28915 22.3743 5.27218C23.3886 6.51534 24 7.99827 24 9.61427C24 12.0622 22.603 14.1877 20.5352 15.6599C19.5401 16.3594 18.4364 16.9078 17.2637 17.2855C17.534 17.8729 17.6843 18.5226 17.6843 19.2048V22.8012C17.6843 23.1191 17.5512 23.4241 17.3143 23.6489C17.0774 23.8737 16.7562 24 16.4211 24H8.84229C8.50728 24 8.186 23.8737 7.94911 23.6489C7.71223 23.4241 7.57915 23.1191 7.57915 22.8012V21.6132C6.37284 21.7534 5.36107 21.6288 4.50087 21.2823C3.60151 20.9203 2.97499 20.3592 2.50384 19.8221C2.05669 19.3138 1.56911 18.1678 0.864279 17.9448C0.706861 17.8951 0.561308 17.8164 0.435932 17.7132C0.310555 17.6101 0.207811 17.4845 0.133564 17.3437C-0.0163846 17.0593 -0.041152 16.73 0.06471 16.4283C0.170572 16.1266 0.398391 15.8771 0.698051 15.7348C0.997711 15.5925 1.34466 15.569 1.66259 15.6695C2.50384 15.9356 3.05204 16.511 3.4272 16.9738C4.0335 17.717 4.52613 18.6881 5.48612 19.0753C5.88148 19.2347 6.46126 19.339 7.3682 19.2215L7.57915 19.1808C7.58156 18.5284 7.72471 17.8834 7.99977 17.2855C6.82705 16.9078 5.72335 16.3594 4.72823 15.6599C2.66047 14.1877 1.26343 12.0634 1.26343 9.61427C1.26343 8.00067 1.87353 6.51894 2.88531 5.27697C2.62005 4.29395 2.64278 3.30133 2.74384 2.54009L2.75015 2.49453C2.84236 1.79682 2.94973 0.975637 3.46509 0.433774C4.21034 -0.349049 5.46591 0.112493 6.34506 0.396611" fill="white"/>
</svg>
