<svg width="70" height="100" viewBox="0 0 70 100" fill="none" xmlns="http://www.w3.org/2000/svg">
<path d="M35 47.5C31.6848 47.5 28.5054 46.183 26.1612 43.8388C23.817 41.4946 22.5 38.3152 22.5 35C22.5 31.6848 23.817 28.5054 26.1612 26.1612C28.5054 23.817 31.6848 22.5 35 22.5C38.3152 22.5 41.4946 23.817 43.8388 26.1612C46.183 28.5054 47.5 31.6848 47.5 35C47.5 36.6415 47.1767 38.267 46.5485 39.7835C45.9203 41.3001 44.9996 42.6781 43.8388 43.8388C42.6781 44.9996 41.3001 45.9203 39.7835 46.5485C38.267 47.1767 36.6415 47.5 35 47.5ZM35 0C25.7174 0 16.815 3.68749 10.2513 10.2513C3.68749 16.815 0 25.7174 0 35C0 61.25 35 100 35 100C35 100 70 61.25 70 35C70 25.7174 66.3125 16.815 59.7487 10.2513C53.185 3.68749 44.2826 0 35 0Z" fill="#FF4A6A"/>
</svg>
