<svg width="44" height="44" viewBox="0 0 44 44" fill="none" xmlns="http://www.w3.org/2000/svg">
<path d="M2 37C2 34.3478 3.05357 31.8043 4.92893 29.9289C6.8043 28.0536 9.34784 27 12 27H32C34.6522 27 37.1957 28.0536 39.0711 29.9289C40.9464 31.8043 42 34.3478 42 37C42 38.3261 41.4732 39.5979 40.5355 40.5355C39.5979 41.4732 38.3261 42 37 42H7C5.67392 42 4.40215 41.4732 3.46447 40.5355C2.52678 39.5979 2 38.3261 2 37Z" stroke="#EEEEEE" stroke-width="3.5" stroke-linejoin="round"/>
<path d="M22 17C26.1421 17 29.5 13.6421 29.5 9.5C29.5 5.35786 26.1421 2 22 2C17.8579 2 14.5 5.35786 14.5 9.5C14.5 13.6421 17.8579 17 22 17Z" stroke="#EEEEEE" stroke-width="3.5"/>
</svg>
