<svg width="100" height="96" viewBox="0 0 100 96" fill="none" xmlns="http://www.w3.org/2000/svg">
<path d="M91.6666 30.0884V67.8826C91.6668 70.9382 90.4486 73.8783 88.2612 76.1014C86.0739 78.3245 83.0828 79.6626 79.8999 79.8419L79.1666 79.8618H20.8333C17.6449 79.862 14.5769 78.6945 12.2572 76.5984C9.93739 74.5022 8.54114 71.6357 8.35409 68.5854L8.33325 67.8826V30.0884L47.6874 55.2326L48.1708 55.4962C48.7404 55.7629 49.366 55.9015 49.9999 55.9015C50.6339 55.9015 51.2595 55.7629 51.8291 55.4962L52.3124 55.2326L91.6666 30.0884Z" fill="#FF4A6A"/>
<path d="M79.1669 15.9719C83.6669 15.9719 87.6127 18.248 89.8127 21.67L50.0002 47.1058L10.1877 21.67C11.2325 20.0439 12.6678 18.6808 14.374 17.6945C16.0803 16.7081 18.0079 16.1271 19.9961 15.9999L20.8336 15.9719H79.1669Z" fill="#FF4A6A"/>
</svg>
