<svg width="93" height="100" viewBox="0 0 93 100" fill="none" xmlns="http://www.w3.org/2000/svg">
<path d="M66.2336 54.3279C73.7991 57.9038 80.2498 63.4697 84.8953 70.4298C89.5408 77.3899 92.2062 85.4823 92.6062 93.8407C92.659 94.6065 92.5582 95.375 92.3099 96.1013C92.0616 96.8276 91.6707 97.4969 91.1602 98.07C90.6497 98.6432 90.0298 99.1086 89.337 99.4389C88.6442 99.7693 87.8923 99.9579 87.1256 99.9937C86.3589 100.03 85.5928 99.9119 84.8722 99.6476C84.1515 99.3833 83.491 98.9777 82.9292 98.4547C82.3675 97.9316 81.9159 97.3016 81.6009 96.6017C81.286 95.9018 81.114 95.1459 81.0951 94.3786C80.6762 85.4996 76.8541 77.1229 70.4223 70.9873C63.9905 64.8518 55.4429 61.4288 46.554 61.4288C37.6651 61.4288 29.1175 64.8518 22.6857 70.9873C16.2539 77.1229 12.4318 85.4996 12.0129 94.3786C11.9094 95.8815 11.2215 97.2842 10.0966 98.2862C8.97163 99.2882 7.49908 99.8099 5.99424 99.7396C4.4894 99.6693 3.07191 99.0125 2.04532 97.91C1.01874 96.8074 0.464659 95.3468 0.501749 93.8407C0.900265 85.4829 3.5642 77.3907 8.20839 70.4305C12.8526 63.4704 19.3022 57.9042 26.8667 54.3279C22.018 50.2835 18.5328 44.8437 16.8852 38.7484C15.2375 32.6532 15.5075 26.1983 17.6583 20.2619C19.8091 14.3255 23.7364 9.19572 28.9059 5.57035C34.0753 1.94497 40.2361 0 46.5501 0C52.8642 0 59.0249 1.94497 64.1944 5.57035C69.3639 9.19572 73.2912 14.3255 75.442 20.2619C77.5928 26.1983 77.8628 32.6532 76.2151 38.7484C74.5675 44.8437 71.0823 50.2835 66.2336 54.3279ZM65.7648 30.7139C65.7648 25.6189 63.7408 20.7325 60.1381 17.1298C56.5354 13.527 51.649 11.5031 46.554 11.5031C41.459 11.5031 36.5726 13.527 32.9699 17.1298C29.3671 20.7325 27.3431 25.6189 27.3431 30.7139C27.3431 35.8089 29.3671 40.6953 32.9699 44.298C36.5726 47.9007 41.459 49.9247 46.554 49.9247C51.649 49.9247 56.5354 47.9007 60.1381 44.298C63.7408 40.6953 65.7648 35.8089 65.7648 30.7139Z" fill="#FF4A6A"/>
</svg>
