<svg width="50" height="50" viewBox="0 0 50 50" fill="none" xmlns="http://www.w3.org/2000/svg">
<path fill-rule="evenodd" clip-rule="evenodd" d="M22.2393 5.0157e-08C18.6927 0.000302196 15.1976 0.848734 12.0456 2.47451C8.89366 4.10029 6.17616 6.45626 4.11988 9.34588C2.0636 12.2355 0.728167 15.575 0.22499 19.0857C-0.278188 22.5963 0.065484 26.1765 1.22733 29.5273C2.38918 32.8782 4.33552 35.9026 6.90396 38.3483C9.47239 40.794 12.5885 42.5899 15.9922 43.5864C19.3959 44.5829 22.9885 44.7509 26.4704 44.0765C29.9522 43.4021 33.2223 41.9049 36.0079 39.7096L45.5637 49.2655C46.0572 49.7421 46.7182 50.0059 47.4042 49.9999C48.0903 49.9939 48.7466 49.7188 49.2317 49.2336C49.7169 48.7485 49.992 48.0922 49.998 47.4061C50.004 46.7201 49.7402 46.0591 49.2636 45.5656L39.7077 36.0098C42.2929 32.7301 43.9026 28.789 44.3525 24.6373C44.8024 20.4856 44.0743 16.2911 42.2517 12.5338C40.429 8.77654 37.5854 5.60832 34.0462 3.39173C30.507 1.17514 26.4153 -0.000280352 22.2393 5.0157e-08ZM5.23132 22.2412C5.23132 17.7304 7.02323 13.4043 10.2128 10.2147C13.4024 7.02512 17.7285 5.23322 22.2393 5.23322C26.7501 5.23322 31.0761 7.02512 34.2657 10.2147C37.4553 13.4043 39.2472 17.7304 39.2472 22.2412C39.2472 26.752 37.4553 31.078 34.2657 34.2676C31.0761 37.4572 26.7501 39.2491 22.2393 39.2491C17.7285 39.2491 13.4024 37.4572 10.2128 34.2676C7.02323 31.078 5.23132 26.752 5.23132 22.2412Z" fill="#BBBBBB"/>
</svg>
