<svg width="50" height="39" viewBox="0 0 50 39" fill="none" xmlns="http://www.w3.org/2000/svg">
<path fill-rule="evenodd" clip-rule="evenodd" d="M12.5146 14.5777C13.7593 14.5777 14.953 14.0833 15.8331 13.2032C16.7132 12.3231 17.2076 11.1294 17.2076 9.88474C17.2076 8.64008 16.7132 7.4464 15.8331 6.5663C14.953 5.68619 13.7593 5.19175 12.5146 5.19175C11.27 5.19175 10.0763 5.68619 9.19619 6.5663C8.31608 7.4464 7.82165 8.64008 7.82165 9.88474C7.82165 11.1294 8.31608 12.3231 9.19619 13.2032C10.0763 14.0833 11.27 14.5777 12.5146 14.5777ZM21.9006 9.88474C21.9009 12.3612 20.9226 14.7373 19.1787 16.4956C20.9705 17.6229 22.4472 19.1863 23.4704 21.0396C24.4936 22.8928 25.0299 24.9754 25.0293 27.0924V31.7853C25.0293 33.4449 24.37 35.0365 23.1965 36.2099C22.0231 37.3834 20.4315 38.0427 18.7719 38.0427H6.25732C4.59777 38.0427 3.0062 37.3834 1.83273 36.2099C0.659251 35.0365 0 33.4449 0 31.7853V27.0924C0 22.6278 2.33711 18.7107 5.85059 16.4956C4.76482 15.4009 3.96545 14.0555 3.52314 12.5785C3.08084 11.1014 3.00922 9.53817 3.31462 8.02687C3.62002 6.51556 4.29303 5.10277 5.27416 3.91336C6.2553 2.72396 7.51433 1.79457 8.93999 1.20736C10.3656 0.620143 11.914 0.393186 13.4482 0.546547C14.9824 0.699908 16.4552 1.22886 17.7364 2.08666C19.0176 2.94445 20.0678 4.10467 20.7941 5.46475C21.5204 6.82483 21.9004 8.34289 21.9006 9.88474ZM4.69299 27.0924C4.69299 25.0179 5.51705 23.0285 6.98389 21.5616C8.45074 20.0948 10.4402 19.2707 12.5146 19.2707C14.5891 19.2707 16.5785 20.0948 18.0454 21.5616C19.5122 23.0285 20.3363 25.0179 20.3363 27.0924V31.7853C20.3363 32.2002 20.1715 32.5981 19.8781 32.8915C19.5847 33.1849 19.1868 33.3497 18.7719 33.3497H6.25732C5.84243 33.3497 5.44454 33.1849 5.15117 32.8915C4.8578 32.5981 4.69299 32.2002 4.69299 31.7853V27.0924ZM49.3702 10.7608C49.7847 10.3159 50.0104 9.72761 49.9996 9.11971C49.9889 8.51181 49.7426 7.9318 49.3127 7.50189C48.8828 7.07197 48.3028 6.82571 47.6949 6.81498C47.087 6.80425 46.4987 7.0299 46.0538 7.44439L37.5439 15.9543L33.7269 12.1374C33.5121 11.9068 33.2531 11.7219 32.9652 11.5937C32.6774 11.4654 32.3667 11.3965 32.0516 11.3909C31.7365 11.3853 31.4236 11.4433 31.1314 11.5613C30.8392 11.6793 30.5738 11.855 30.351 12.0778C30.1282 12.3006 29.9525 12.566 29.8345 12.8582C29.7165 13.1504 29.6585 13.4634 29.6641 13.7784C29.6696 14.0935 29.7386 14.4042 29.8669 14.692C29.9951 14.9799 30.18 15.2389 30.4106 15.4538L35.8857 20.9289C36.3257 21.3683 36.9221 21.6151 37.5439 21.6151C38.1657 21.6151 38.7621 21.3683 39.2021 20.9289L49.3702 10.7608Z" fill="#BBBBBB"/>
</svg>
