<svg width="24" height="16" viewBox="0 0 24 16" fill="none" xmlns="http://www.w3.org/2000/svg">
<path d="M21.6664 0.768052H15.5873V2.45868H21.6903L21.6664 0.768052ZM20.3834 12.3986C19.9222 12.7042 19.3776 12.8592 18.8247 12.8422C18.4587 12.8804 18.0887 12.8426 17.738 12.7312C17.3872 12.6198 17.0632 12.4371 16.7863 12.1948C16.2744 11.6143 16.0078 10.8577 16.0429 10.0845H23.9805C24.0377 9.27938 23.9689 8.4703 23.7766 7.68642C23.5906 6.94066 23.2652 6.23683 22.8174 5.61211C22.3667 5.00613 21.7846 4.51011 21.1148 4.16129C20.3696 3.79384 19.5476 3.6089 18.7168 3.62173C17.9354 3.61601 17.1608 3.76685 16.4386 4.06537C15.7774 4.34413 15.1782 4.75173 14.6761 5.26439C14.1753 5.78731 13.7876 6.40768 13.537 7.08691C13.268 7.82018 13.134 8.59605 13.1413 9.37705C13.129 10.1691 13.2589 10.957 13.525 11.7032C13.751 12.3788 14.1097 13.0026 14.5801 13.5377C15.0668 14.063 15.665 14.4727 16.3307 14.7367C17.073 15.0195 17.8626 15.1579 18.6568 15.1444C19.7712 15.1791 20.8715 14.8874 21.8222 14.305C22.7825 13.6226 23.4739 12.6258 23.7766 11.4873H21.1268C20.9849 11.864 20.7239 12.184 20.3834 12.3986ZM16.2708 7.45861C16.3641 7.15967 16.519 6.88359 16.7255 6.64817C16.932 6.41274 17.1855 6.22319 17.4698 6.09172C17.8462 5.92228 18.2562 5.84029 18.6688 5.85192C18.9669 5.82645 19.267 5.86578 19.5485 5.96719C19.8299 6.0686 20.0861 6.2297 20.2995 6.43944C20.7069 6.93815 20.9683 7.53989 21.0549 8.17802H16.0789C16.0983 7.93436 16.1425 7.69331 16.2108 7.45861H16.2708ZM9.92792 6.88308C10.5382 6.62896 11.0684 6.21469 11.4627 5.68405C11.825 5.12052 12.0051 4.45905 11.9783 3.78959C12.0018 3.1791 11.8827 2.57152 11.6305 2.01504C11.4187 1.53293 11.0786 1.1182 10.6473 0.816013C10.1901 0.501836 9.67086 0.289237 9.12457 0.19252C8.47808 0.0569268 7.81868 -0.00740508 7.15817 0.000676676H0V15.0844H7.31405C7.98153 15.0849 8.64635 15.0003 9.29244 14.8326C9.90483 14.6742 10.485 14.4105 11.007 14.0532C11.5127 13.7028 11.9245 13.2334 12.2061 12.6864C12.5177 12.0746 12.6703 11.3942 12.6497 10.708C12.6724 9.85754 12.4339 9.02059 11.9663 8.30992C11.4634 7.5952 10.7175 7.08801 9.86797 6.88308H9.92792ZM3.3213 2.57858H6.42677C6.71207 2.57823 6.99688 2.6023 7.27808 2.65052C7.537 2.68889 7.78567 2.77857 8.00948 2.91431C8.22572 3.03662 8.40094 3.22018 8.51307 3.44188C8.65194 3.70772 8.71812 4.00553 8.70492 4.30517C8.72726 4.56325 8.68779 4.82293 8.58979 5.06272C8.49179 5.30251 8.33808 5.5155 8.14137 5.68405C7.71227 5.97905 7.1988 6.12636 6.67857 6.10371H3.3213V2.57858ZM9.12457 11.4993C9.00139 11.7437 8.8151 11.9507 8.58501 12.0988C8.34557 12.2478 8.08174 12.3533 7.80565 12.4106C7.49877 12.4793 7.18484 12.5115 6.87041 12.5065H3.27334V8.36987H6.87041C7.48768 8.34284 8.09727 8.5152 8.60899 8.86147C8.84018 9.06893 9.01927 9.32792 9.13175 9.61747C9.24424 9.90702 9.28696 10.219 9.25647 10.5281C9.28888 10.8577 9.24371 11.1903 9.12457 11.4993Z" fill="white"/>
</svg>
