<svg width="28" height="24" viewBox="0 0 28 24" fill="none" xmlns="http://www.w3.org/2000/svg">
<path d="M18 12H19.8V15.384L22.728 17.076L21.828 18.636L18 16.428V12ZM19.2 9.6C17.6087 9.6 16.0826 10.2321 14.9574 11.3574C13.8321 12.4826 13.2 14.0087 13.2 15.6C13.2 17.1913 13.8321 18.7174 14.9574 19.8426C16.0826 20.9679 17.6087 21.6 19.2 21.6C20.7913 21.6 22.3174 20.9679 23.4426 19.8426C24.5679 18.7174 25.2 17.1913 25.2 15.6C25.2 14.0087 24.5679 12.4826 23.4426 11.3574C22.3174 10.2321 20.7913 9.6 19.2 9.6ZM19.2 7.2C21.4278 7.2 23.5644 8.085 25.1397 9.6603C26.715 11.2356 27.6 13.3722 27.6 15.6C27.6 17.8278 26.715 19.9644 25.1397 21.5397C23.5644 23.115 21.4278 24 19.2 24C15.852 24 12.96 22.032 11.604 19.2H0V15.6C0 12.408 6.396 10.8 9.6 10.8C10.32 10.8 11.208 10.884 12.144 11.04C12.9051 9.86089 13.9499 8.89153 15.1826 8.22067C16.4153 7.54981 17.7966 7.19888 19.2 7.2ZM10.8 15.6C10.8 14.76 10.92 13.944 11.148 13.2C10.644 13.116 10.116 13.08 9.6 13.08C6.036 13.08 2.28 14.832 2.28 15.6V16.92H10.908C10.8358 16.4837 10.7997 16.0422 10.8 15.6ZM9.6 0C10.873 0 12.0939 0.505713 12.9941 1.40589C13.8943 2.30606 14.4 3.52696 14.4 4.8C14.4 6.07304 13.8943 7.29394 12.9941 8.19411C12.0939 9.09429 10.873 9.6 9.6 9.6C8.32696 9.6 7.10606 9.09429 6.20589 8.19411C5.30571 7.29394 4.8 6.07304 4.8 4.8C4.8 3.52696 5.30571 2.30606 6.20589 1.40589C7.10606 0.505713 8.32696 0 9.6 0ZM9.6 2.28C8.93165 2.28 8.29068 2.5455 7.81809 3.01809C7.3455 3.49068 7.08 4.13165 7.08 4.8C7.08 5.46835 7.3455 6.10932 7.81809 6.58191C8.29068 7.0545 8.93165 7.32 9.6 7.32C10.2683 7.32 10.9093 7.0545 11.3819 6.58191C11.8545 6.10932 12.12 5.46835 12.12 4.8C12.12 4.13165 11.8545 3.49068 11.3819 3.01809C10.9093 2.5455 10.2683 2.28 9.6 2.28Z" fill="#BBBBBB"/>
</svg>
