<svg width="24" height="17" viewBox="0 0 24 17" fill="none" xmlns="http://www.w3.org/2000/svg">
<path d="M0.0142219 15.4342L1.00158 15.5927C1.18986 14.4198 1.65815 13.3097 2.36676 12.3563C3.07537 11.4029 4.0034 10.6345 5.07217 10.116L6.37952 9.48191L5.32026 8.4873C4.88939 8.08272 4.54611 7.59405 4.31165 7.05151C4.07718 6.50897 3.95652 5.92409 3.95713 5.33305L3.95713 5.3319C3.95705 4.61397 4.13541 3.90728 4.47619 3.27539C4.81697 2.6435 5.30947 2.10622 5.90941 1.71188C6.50934 1.31755 7.19788 1.07852 7.9131 1.0163C8.62833 0.954078 9.3478 1.07061 10.0068 1.35543C10.6658 1.64024 11.2437 2.0844 11.6885 2.64795C12.1333 3.2115 12.431 3.87677 12.5549 4.58393C12.6788 5.29109 12.6249 6.01795 12.3982 6.69914C12.1715 7.38033 11.779 7.99448 11.2561 8.48637L10.1989 9.48079L11.5047 10.1144C12.5737 10.6332 13.5019 11.4021 14.2106 12.356C14.919 13.3096 15.3871 14.4198 15.5752 15.5927C15.578 15.6111 15.5773 15.6299 15.5729 15.648C15.5686 15.6662 15.5606 15.6834 15.5496 15.6986C15.5386 15.7138 15.5247 15.7267 15.5087 15.7365C15.4927 15.7463 15.4749 15.7528 15.4564 15.7558C15.4379 15.7587 15.419 15.758 15.4007 15.7536C15.3825 15.7492 15.3653 15.7413 15.3501 15.7303C15.3349 15.7192 15.3221 15.7053 15.3123 15.6893C15.3025 15.6733 15.2959 15.6556 15.293 15.6371L15.2928 15.6361C15.0269 13.9697 14.1756 12.4528 12.8918 11.3577C11.608 10.2626 9.97589 9.66106 8.2885 9.66106C6.6011 9.66106 4.96897 10.2626 3.68521 11.3577C2.40144 12.4528 1.55014 13.9697 1.28417 15.6361L1.28412 15.6364C1.28116 15.6549 1.27459 15.6727 1.26477 15.6887C1.25494 15.7047 1.24207 15.7186 1.22687 15.7296C1.21168 15.7407 1.19446 15.7486 1.1762 15.753C1.15794 15.7573 1.13901 15.7581 1.12047 15.7551C1.10193 15.7521 1.08416 15.7456 1.06816 15.7358C1.05215 15.7259 1.03825 15.713 1.02723 15.6979C1.01621 15.6827 1.00829 15.6654 1.00392 15.6472C0.999555 15.6289 0.998827 15.61 1.00178 15.5915L0.0142219 15.4342ZM0.0142219 15.4342C-0.00938225 15.5824 -0.00355997 15.7338 0.0313564 15.8798C0.0662727 16.0258 0.129599 16.1635 0.21772 16.285C0.305842 16.4065 0.417032 16.5094 0.544942 16.588C0.672852 16.6665 0.814978 16.7191 0.963204 16.7427C1.11143 16.7663 1.26285 16.7604 1.40883 16.7255C1.55481 16.6906 1.69248 16.6273 1.81398 16.5392C1.93548 16.451 2.03844 16.3398 2.11697 16.2119C2.1955 16.084 2.24807 15.9419 2.27167 15.7937C2.50014 14.3623 3.23142 13.0592 4.3342 12.1185C5.43697 11.1778 6.83899 10.6611 8.2885 10.6611C9.738 10.6611 11.14 11.1778 12.2428 12.1185C13.3456 13.0592 14.0768 14.3623 14.3053 15.7937L2.95713 5.33202C2.95638 6.05985 3.10497 6.7801 3.3937 7.44821C3.54516 7.79869 3.73351 8.13092 3.95495 8.43952C4.03574 8.39738 4.11721 8.35639 4.19933 8.31656L4.63575 9.2163L3.95124 9.9453C3.87567 9.87434 3.80195 9.80162 3.73012 9.72721C2.8953 10.269 2.16115 10.9566 1.56417 11.7598C0.759661 12.8422 0.227986 14.1026 0.0142219 15.4342ZM8.3111 1.28578C7.77223 1.2736 7.23636 1.36919 6.73494 1.56696C6.23353 1.76472 5.77668 2.06067 5.39121 2.43742C5.00574 2.81418 4.69943 3.26415 4.49026 3.76091C4.28108 4.25767 4.17326 4.79122 4.17313 5.33023C4.17299 5.86924 4.28055 6.40284 4.48947 6.89971C4.6984 7.39658 5.00448 7.8467 5.38976 8.22365C5.77504 8.60059 6.23175 8.89677 6.73306 9.09478C7.23438 9.2928 7.7702 9.38866 8.30908 9.37674C9.36635 9.35336 10.3725 8.91701 11.112 8.1611C11.8516 7.40518 12.2658 6.38978 12.2661 5.33225C12.2664 4.27472 11.8526 3.25911 11.1134 2.50283C10.3743 1.74654 9.36836 1.30969 8.3111 1.28578Z" stroke="#BBBBBB" stroke-width="2"/>
</svg>
