<svg width="54" height="40" viewBox="0 0 54 40" fill="none" xmlns="http://www.w3.org/2000/svg">
<path d="M27 2.00263H11.4605C10.2164 2.00263 8.98447 2.24803 7.83529 2.72478C6.68611 3.20153 5.64226 3.90027 4.76349 4.78099C3.88473 5.66172 3.18831 6.70712 2.71411 7.85736C2.23992 9.00759 1.99725 10.2401 2.00002 11.4842V27.7C2.00002 30.2091 2.99675 32.6154 4.77095 34.3896C5.64944 35.2681 6.69236 35.9649 7.84016 36.4404C8.98796 36.9158 10.2182 37.1605 11.4605 37.1605H27C29.5091 37.1605 31.9154 36.1638 33.6896 34.3896C35.4638 32.6154 36.4605 30.2091 36.4605 27.7V11.4868C36.4643 10.2422 36.2224 9.00896 35.7487 7.85796C35.2749 6.70696 34.5786 5.6608 33.6997 4.77945C32.8208 3.8981 31.7766 3.1989 30.6269 2.72194C29.4772 2.24499 28.2447 1.99965 27 2M52 12.8395V26.3526C52 27.0105 51.8132 27.6579 51.4605 28.2158C51.104 28.7758 50.5981 29.2251 50 29.5131C49.4063 29.8103 48.7375 29.9239 48.079 29.8395C47.4296 29.7621 46.8137 29.5091 46.2974 29.1079L37.8105 22.2974C37.4023 21.9624 37.0724 21.5422 36.8437 21.0662C36.615 20.5903 36.4932 20.0701 36.4868 19.5421C36.4868 19.0158 36.6053 18.4974 36.8368 18.0289C37.079 17.5868 37.4105 17.2 37.8105 16.8921L46.2974 10.1368C46.814 9.73433 47.4311 9.48129 48.0816 9.40526C48.7395 9.32105 49.4079 9.43421 50 9.72894C50.5894 10.0105 51.0887 10.4506 51.442 11C51.7953 11.5494 51.9885 12.1864 52 12.8395Z" stroke="#BBBBBB" stroke-width="4" stroke-linecap="round" stroke-linejoin="round"/>
</svg>
