<svg width="23" height="24" viewBox="0 0 23 24" fill="none" xmlns="http://www.w3.org/2000/svg">
<path d="M21.9178 16.2126C20.9535 14.5539 20.4413 12.1731 20.4413 9.33229C20.4413 6.85721 19.4581 4.48351 17.708 2.73336C15.9578 0.983221 13.5841 0 11.109 0C8.63396 0 6.26025 0.983221 4.51011 2.73336C2.75996 4.48351 1.77674 6.85721 1.77674 9.33229C1.77674 12.1742 1.2668 14.5539 0.302462 16.2126C0.105686 16.551 0.00137863 16.9351 1.35725e-05 17.3265C-0.00135148 17.7178 0.100274 18.1027 0.294686 18.4424C0.487867 18.7823 0.768259 19.0644 1.10691 19.2597C1.44557 19.455 1.83021 19.5564 2.22114 19.5534H6.24069C6.35093 20.7684 6.91152 21.8983 7.81232 22.721C8.71312 23.5438 9.88903 24 11.109 24C12.329 24 13.5049 23.5438 14.4057 22.721C15.3066 21.8983 15.8671 20.7684 15.9774 19.5534H19.9969C20.3873 19.5558 20.7712 19.4541 21.1093 19.2589C21.4473 19.0636 21.7271 18.7818 21.92 18.4424C22.1153 18.1032 22.2179 17.7186 22.2175 17.3272C22.2171 16.9358 22.1138 16.5514 21.9178 16.2126ZM11.109 21.331C10.5968 21.3311 10.1003 21.1542 9.70346 20.8303C9.30665 20.5063 9.03395 20.0553 8.9315 19.5534H13.2866C13.1841 20.0553 12.9114 20.5063 12.5146 20.8303C12.1178 21.1542 11.6213 21.3311 11.109 21.331ZM2.96105 16.887C3.94428 14.8872 4.44311 12.3475 4.44311 9.33229C4.44311 7.56438 5.14541 5.86888 6.39551 4.61877C7.64562 3.36867 9.34112 2.66637 11.109 2.66637C12.8769 2.66637 14.5724 3.36867 15.8226 4.61877C17.0727 5.86888 17.775 7.56438 17.775 9.33229C17.775 12.3464 18.2727 14.8872 19.2559 16.887H2.96105Z" fill="#BBBBBB"/>
</svg>
