<svg width="20" height="25" viewBox="0 0 20 25" fill="none" xmlns="http://www.w3.org/2000/svg">
<path d="M19.2 8.828C19.1875 8.71776 19.1634 8.60916 19.128 8.504V8.396C19.0703 8.27262 18.9933 8.1592 18.9 8.06L11.7 0.86C11.6008 0.766659 11.4874 0.689697 11.364 0.632H11.256L10.872 0.5H3.6C2.64522 0.5 1.72955 0.879285 1.05442 1.55442C0.379285 2.22955 0 3.14522 0 4.1V20.9C0 21.8548 0.379285 22.7705 1.05442 23.4456C1.72955 24.1207 2.64522 24.5 3.6 24.5H15.6C16.5548 24.5 17.4705 24.1207 18.1456 23.4456C18.8207 22.7705 19.2 21.8548 19.2 20.9V8.9V8.828ZM12 4.592L15.108 7.7H12V4.592ZM16.8 20.9C16.8 21.2183 16.6736 21.5235 16.4485 21.7485C16.2235 21.9736 15.9183 22.1 15.6 22.1H3.6C3.28174 22.1 2.97652 21.9736 2.75147 21.7485C2.52643 21.5235 2.4 21.2183 2.4 20.9V4.1C2.4 3.78174 2.52643 3.47652 2.75147 3.25147C2.97652 3.02643 3.28174 2.9 3.6 2.9H9.6V8.9C9.6 9.21826 9.72643 9.52348 9.95147 9.74853C10.1765 9.97357 10.4817 10.1 10.8 10.1H16.8V20.9Z" fill="#BBBBBB"/>
</svg>
