<svg width="60" height="100" viewBox="0 0 60 100" fill="none" xmlns="http://www.w3.org/2000/svg">
<path d="M36.25 90C36.25 88.2812 35.638 86.8099 34.4141 85.5859C33.1901 84.362 31.7188 83.75 30 83.75C28.2813 83.75 26.8099 84.362 25.5859 85.5859C24.362 86.8099 23.75 88.2812 23.75 90C23.75 91.7188 24.362 93.1901 25.5859 94.4141C26.8099 95.638 28.2813 96.25 30 96.25C31.7188 96.25 33.1901 95.638 34.4141 94.4141C35.638 93.1901 36.25 91.7188 36.25 90ZM52.5 77.5V22.5C52.5 21.8229 52.2526 21.237 51.7578 20.7422C51.263 20.2474 50.6771 20 50 20H10C9.32292 20 8.73698 20.2474 8.24219 20.7422C7.7474 21.237 7.5 21.8229 7.5 22.5V77.5C7.5 78.1771 7.7474 78.763 8.24219 79.2578C8.73698 79.7526 9.32292 80 10 80H50C50.6771 80 51.263 79.7526 51.7578 79.2578C52.2526 78.763 52.5 78.1771 52.5 77.5ZM37.5 11.25C37.5 10.4167 37.0833 10 36.25 10H23.75C22.9167 10 22.5 10.4167 22.5 11.25C22.5 12.0833 22.9167 12.5 23.75 12.5H36.25C37.0833 12.5 37.5 12.0833 37.5 11.25ZM60 10V90C60 92.7083 59.0104 95.0521 57.0313 97.0312C55.0521 99.0104 52.7083 100 50 100H10C7.29167 100 4.94792 99.0104 2.96875 97.0312C0.989583 95.0521 0 92.7083 0 90V10C0 7.29167 0.989583 4.94792 2.96875 2.96875C4.94792 0.989583 7.29167 0 10 0H50C52.7083 0 55.0521 0.989583 57.0313 2.96875C59.0104 4.94792 60 7.29167 60 10Z" fill="#FF4A6A"/>
</svg>
