<svg width="28" height="28" viewBox="0 0 28 28" fill="none" xmlns="http://www.w3.org/2000/svg">
<path d="M14 11.5C16.4853 11.5 18.5 9.48528 18.5 7C18.5 4.51472 16.4853 2.5 14 2.5C11.5147 2.5 9.5 4.51472 9.5 7C9.5 9.48528 11.5147 11.5 14 11.5Z" stroke="#BBBBBB" stroke-width="3.5"/>
<path d="M2 22.5C2 20.9087 2.63214 19.3826 3.75736 18.2574C4.88258 17.1321 6.4087 16.5 8 16.5H20C21.5913 16.5 23.1174 17.1321 24.2426 18.2574C25.3679 19.3826 26 20.9087 26 22.5C26 23.2956 25.6839 24.0587 25.1213 24.6213C24.5587 25.1839 23.7956 25.5 23 25.5H5C4.20435 25.5 3.44129 25.1839 2.87868 24.6213C2.31607 24.0587 2 23.2956 2 22.5Z" stroke="#BBBBBB" stroke-width="3.5" stroke-linejoin="round"/>
</svg>
