<svg width="20" height="24" viewBox="0 0 20 24" fill="none" xmlns="http://www.w3.org/2000/svg">
<path fill-rule="evenodd" clip-rule="evenodd" d="M9.6 2.4C8.96348 2.4 8.35303 2.65286 7.90294 3.10294C7.45286 3.55303 7.2 4.16348 7.2 4.8H12C12 4.16348 11.7471 3.55303 11.2971 3.10294C10.847 2.65286 10.2365 2.4 9.6 2.4ZM6.4248 1.2C7.2708 0.4536 8.3832 0 9.6 0C10.8168 0 11.928 0.4536 12.7752 1.2H16.8C17.4365 1.2 18.047 1.45286 18.4971 1.90294C18.9471 2.35303 19.2 2.96348 19.2 3.6V21.6C19.2 22.2365 18.9471 22.847 18.4971 23.2971C18.047 23.7471 17.4365 24 16.8 24H2.4C1.76348 24 1.15303 23.7471 0.702944 23.2971C0.252856 22.847 0 22.2365 0 21.6V3.6C0 2.96348 0.252856 2.35303 0.702944 1.90294C1.15303 1.45286 1.76348 1.2 2.4 1.2H6.4248ZM4.9512 3.6H2.4V21.6H16.8V3.6H14.2488C14.3472 3.984 14.4 4.386 14.4 4.8V6C14.4 6.31826 14.2736 6.62348 14.0485 6.84853C13.8235 7.07357 13.5183 7.2 13.2 7.2H6C5.68174 7.2 5.37652 7.07357 5.15147 6.84853C4.92643 6.62348 4.8 6.31826 4.8 6V4.8C4.8 4.386 4.8528 3.984 4.9512 3.6ZM4.8 10.8C4.8 10.4817 4.92643 10.1765 5.15147 9.95147C5.37652 9.72643 5.68174 9.6 6 9.6H13.2C13.5183 9.6 13.8235 9.72643 14.0485 9.95147C14.2736 10.1765 14.4 10.4817 14.4 10.8C14.4 11.1183 14.2736 11.4235 14.0485 11.6485C13.8235 11.8736 13.5183 12 13.2 12H6C5.68174 12 5.37652 11.8736 5.15147 11.6485C4.92643 11.4235 4.8 11.1183 4.8 10.8ZM4.8 15.6C4.8 15.2817 4.92643 14.9765 5.15147 14.7515C5.37652 14.5264 5.68174 14.4 6 14.4H9.6C9.91826 14.4 10.2235 14.5264 10.4485 14.7515C10.6736 14.9765 10.8 15.2817 10.8 15.6C10.8 15.9183 10.6736 16.2235 10.4485 16.4485C10.2235 16.6736 9.91826 16.8 9.6 16.8H6C5.68174 16.8 5.37652 16.6736 5.15147 16.4485C4.92643 16.2235 4.8 15.9183 4.8 15.6Z" fill="#BBBBBB"/>
</svg>
