<svg width="50" height="51" viewBox="0 0 50 51" fill="none" xmlns="http://www.w3.org/2000/svg">
<path d="M13.7045 9.93821L5.68182 18.0064C-1.88636 25.5291 -1.88636 37.7564 5.68182 45.2791C13.25 52.8018 25.4318 52.8473 32.9545 45.2791L46.5909 31.6428C48.8636 29.4382 48.8636 25.8246 46.5909 23.5973C46.3636 23.3246 46.0682 23.0746 45.75 22.87L46.5909 21.9837C48.8636 19.7791 48.8636 16.1655 46.5909 13.9382C46.2727 13.5746 45.8409 13.2564 45.4545 13.0064C46.3182 10.9155 45.9318 8.41548 44.2273 6.71094C42.25 4.73366 39.1818 4.52912 36.9545 6.07457C36.4921 5.36225 35.8768 4.76184 35.1534 4.31693C34.43 3.87201 33.6166 3.59375 32.7722 3.50236C31.9279 3.41096 31.0738 3.50871 30.2719 3.78852C29.47 4.06833 28.7405 4.52317 28.1364 5.12003L22.4318 10.8246C22.2273 10.5064 21.9773 10.2109 21.7045 9.93821C20.632 8.8996 19.1975 8.31889 17.7045 8.31889C16.2115 8.31889 14.7771 8.8996 13.7045 9.93821ZM16.9091 13.1655C17.3636 12.7109 18.0682 12.7109 18.5227 13.1655C18.9773 13.62 18.9773 14.3246 18.5227 14.7791L11.2955 22.0064C12.5723 23.2848 13.2895 25.0177 13.2895 26.8246C13.2895 28.6314 12.5723 30.3643 11.2955 31.6428L14.5 34.8473C16.0631 33.2844 17.1364 31.2995 17.5886 29.1358C18.0407 26.9721 17.8519 24.7235 17.0455 22.6655L31.3636 8.3473C31.8182 7.89276 32.5227 7.89276 32.9545 8.3473C33.3864 8.80185 33.4318 9.50639 32.9545 9.96094L22.5227 20.4155L25.7273 23.62L39.3864 9.96094C39.8409 9.50639 40.5455 9.50639 41 9.96094C41.4545 10.4155 41.4545 11.12 41 11.5746L27.3409 25.2337L30.5455 28.4382L41.7955 17.1882C42.25 16.7337 42.9545 16.7337 43.4091 17.1882C43.8636 17.6428 43.8636 18.3473 43.4091 18.8018L30.5455 31.6428L33.75 34.87L41.7955 26.8246C42.25 26.37 42.9545 26.37 43.4091 26.8246C43.8636 27.2791 43.8636 27.9837 43.4091 28.4382L29.7727 42.0973C24 47.87 14.6591 47.87 8.88636 42.0973C3.11364 36.3246 3.11364 26.9837 8.88636 21.2109L16.9091 13.1655ZM50 37.3246C50 44.8473 43.8864 50.9609 36.3636 50.9609V47.5518C42.0455 47.5518 46.5909 43.0064 46.5909 37.3246H50ZM0 14.5973C0 7.07457 6.11364 0.960938 13.6364 0.960938V4.37003C7.95455 4.37003 3.40909 8.91548 3.40909 14.5973H0Z" fill="#BBBBBB"/>
</svg>
